<svg width="365" height="365" viewBox="0 0 365 365" fill="none" xmlns="http://www.w3.org/2000/svg">
<g clip-path="url(#clip0_121_130)">
<path opacity="0.99" fill-rule="evenodd" clip-rule="evenodd" d="M181.329 12.6792C191.396 13.537 201.465 14.3949 211.532 15.2527C269.782 27.4167 311.621 60.3019 337.05 113.908C346.251 135.505 351.061 157.96 351.482 181.273C350.624 191.34 349.766 201.409 348.908 211.476C336.744 269.726 303.859 311.566 250.253 336.994C228.655 346.195 206.201 351.005 182.888 351.426C172.82 350.568 162.752 349.71 152.685 348.852C94.4347 336.688 52.5954 303.803 27.1665 250.197C17.9656 228.599 13.1551 206.145 12.7351 182.832C13.5929 172.764 14.4508 162.696 15.3086 152.629C27.4724 94.3794 60.3574 52.5402 113.964 27.1105C135.561 17.9097 158.016 13.0992 181.329 12.6792ZM128.177 108.676C138.624 109.47 147.536 113.536 154.915 120.875C177.035 114.823 198.483 116.651 219.26 126.357C234.8 116.484 250.461 116.385 266.242 126.062C278.499 134.831 285.308 146.764 286.669 161.862C286.284 190.692 285.373 219.493 283.937 248.267C281.403 255.483 276.478 260.243 269.162 262.55C261.89 262.97 254.649 262.574 247.438 261.36C238.222 243.798 229.143 226.16 220.202 208.446C193.575 205.295 166.874 203.02 140.098 201.62C128.289 217.567 116.357 233.414 104.302 249.164C97.9178 249.061 91.5712 248.52 85.2613 247.541C74.1122 243.35 69.2844 235.333 70.7767 223.491C74.6476 197.144 78.5455 170.802 82.4706 144.463C89.2361 121.591 104.472 109.662 128.177 108.676Z" fill="white"/>
<path opacity="0.922" fill-rule="evenodd" clip-rule="evenodd" d="M246.863 143.921C256.438 145.032 259.858 150.173 257.123 159.344C252.81 165.109 247.546 166.093 241.33 162.298C237.403 157.599 237.057 152.61 240.29 147.329C242.306 145.739 244.497 144.603 246.863 143.921Z" fill="white"/>
<path opacity="0.956" fill-rule="evenodd" clip-rule="evenodd" d="M108.365 139.394C113.399 139.823 118.432 140.252 123.466 140.681C123.074 145.277 122.683 149.873 122.291 154.469C126.887 154.861 131.483 155.253 136.08 155.644C135.651 160.678 135.222 165.712 134.793 170.746C130.197 170.354 125.601 169.963 121.004 169.571C120.613 174.167 120.221 178.763 119.83 183.359C114.796 182.93 109.762 182.501 104.728 182.073C105.12 177.476 105.511 172.88 105.903 168.284C101.307 167.893 96.7107 167.501 92.1146 167.109C92.5435 162.075 92.9724 157.042 93.4013 152.008C97.9974 152.399 102.594 152.791 107.19 153.183C107.581 148.587 107.973 143.99 108.365 139.394Z" fill="white"/>
<path opacity="0.927" fill-rule="evenodd" clip-rule="evenodd" d="M230.419 158.392C239.904 160.379 242.849 165.921 239.254 175.017C234.104 179.781 228.677 180.089 222.971 175.945C219.528 171.157 219.6 166.423 223.189 161.744C225.369 159.981 227.779 158.864 230.419 158.392Z" fill="white"/>
<path opacity="0.925" fill-rule="evenodd" clip-rule="evenodd" d="M261.936 161.077C272.255 163.103 275.182 168.864 270.714 178.359C266.016 182.286 261.026 182.632 255.745 179.399C250.852 173.056 251.556 167.385 257.856 162.383C259.289 161.946 260.649 161.511 261.936 161.077Z" fill="white"/>
<path opacity="0.927" fill-rule="evenodd" clip-rule="evenodd" d="M242.809 175.982C251.982 175.638 256.133 179.96 255.262 188.947C253.92 193.329 250.951 195.831 246.355 196.455C237.25 195.785 233.802 190.972 236.012 182.016C237.592 179.161 239.858 177.15 242.809 175.982Z" fill="white"/>
</g>
<defs>
<clipPath id="clip0_121_130">
<rect width="337.391" height="337.391" fill="white" transform="translate(28.6443) rotate(4.87023)"/>
</clipPath>
</defs>
</svg>
