<svg width="51" height="51" viewBox="0 0 51 51" fill="none" xmlns="http://www.w3.org/2000/svg">
<path fill-rule="evenodd" clip-rule="evenodd" d="M3.58361 22.8951C16.825 17.1258 25.654 13.322 30.0706 11.4836C42.685 6.2396 45.3198 5.32889 47.0141 5.295C47.6424 5.28279 48.2587 5.46798 48.7762 5.82449C49.1394 6.13761 49.3709 6.57637 49.4243 7.05289C49.5155 7.64553 49.5411 8.24643 49.5006 8.84467C48.8186 16.0457 45.8577 33.4509 44.354 41.4948C43.7186 44.8835 42.4648 46.0399 41.2491 46.1543C38.6143 46.3957 36.5896 44.4091 34.0481 42.736C30.0494 40.1139 27.7917 38.5001 23.9116 35.9247C19.4258 32.9595 22.3359 31.3457 24.8901 28.694C25.5594 27.9993 37.1742 17.4266 37.4029 16.4693C37.433 16.3279 37.4296 16.1814 37.3928 16.0416C37.356 15.9018 37.2869 15.7727 37.1911 15.6644C37.0521 15.5775 36.8947 15.5243 36.7314 15.5088C36.5682 15.4934 36.4036 15.5162 36.2507 15.5755C35.8526 15.663 29.4677 19.8834 17.0961 28.2365C15.2831 29.4819 13.641 30.089 12.1698 30.058C10.5474 30.0198 7.42978 29.1388 5.10852 28.3636C2.26624 27.4402 0.0254813 26.9531 0.203388 25.3985C0.307873 24.5852 1.43461 23.7507 3.58361 22.8951Z" fill="white"/>
</svg>
