<svg width="60" height="60" viewBox="0 0 60 60" fill="none" xmlns="http://www.w3.org/2000/svg">
<path d="M21 14.1563C20.625 14.8125 21.0938 15.6563 21.9375 16.125C23.0625 16.7813 23.4375 18.2813 23.4375 22.3125C23.4375 32.25 20.8125 31.875 15.0938 21L11.7188 14.5313L7.0313 14.25C-0.562453 13.875 -0.749953 14.625 3.56255 23.25C11.7188 39.5625 19.7813 46.875 29.7188 46.875C34.5938 46.875 34.5938 46.875 35.25 43.5C36.1875 38.625 37.9688 38.5313 42.5625 43.0313L46.5938 46.9688L53.0625 46.6875C61.2188 46.3125 61.5938 45.2813 55.3125 38.25C52.7813 35.3438 50.625 32.5313 50.625 31.9688C50.625 31.3125 52.7813 27.8438 55.3125 24.1875C57.9375 20.5313 60 16.9688 60 16.3125C60 14.625 56.7188 13.875 51 14.25C46.9688 14.5313 46.3125 14.8125 45.0938 17.3438C42.6563 22.6875 38.25 29.0625 36.9375 29.0625C35.25 29.0625 34.3125 25.125 35.0625 20.5313C36 14.4375 34.6875 13.125 27.6563 13.125C24.1875 13.125 21.375 13.5938 21 14.1563Z" fill="white"/>
</svg>
