<svg width="68" height="68" viewBox="0 0 68 68" fill="none" xmlns="http://www.w3.org/2000/svg">
<g clip-path="url(#clip0_103_271)">
<path opacity="0.939" fill-rule="evenodd" clip-rule="evenodd" d="M7.63672 -0.0664062C18.3945 -0.0664062 29.1524 -0.0664062 39.9102 -0.0664062C40.4171 0.111624 40.904 0.355114 41.3711 0.664062C44.8464 4.13933 48.3216 7.61458 51.7969 11.0898C52.1202 11.5275 52.3415 12.0145 52.4609 12.5508C52.5495 18.7487 52.5495 24.9466 52.4609 31.1445C51.9747 31.739 51.3992 31.8276 50.7344 31.4102C50.6199 31.1994 50.5313 30.978 50.4688 30.7461C50.4024 24.9468 50.3802 19.1473 50.4024 13.3477C48.0556 13.3698 45.7093 13.3477 43.3633 13.2812C41.0833 12.7721 39.6888 11.3776 39.1797 9.09766C39.1133 6.75172 39.0911 4.40536 39.1133 2.05859C28.7538 2.03645 18.3944 2.05859 8.03516 2.125C6.77753 2.54154 6.04706 3.40482 5.84375 4.71484C5.75521 22.5559 5.75521 40.3972 5.84375 58.2383C6.05802 59.6036 6.83276 60.4669 8.16797 60.8281C11.9753 60.8724 15.7825 60.9167 19.5898 60.9609C20.5971 61.5759 20.6415 62.2399 19.7227 62.9531C15.7825 63.0417 11.8425 63.0417 7.90235 62.9531C5.50779 62.4178 4.11326 60.9346 3.71875 58.5039C3.63021 40.4856 3.63021 22.4675 3.71875 4.44922C4.1041 2.13852 5.41008 0.633314 7.63672 -0.0664062ZM41.2383 3.65234C43.7793 6.12685 46.3027 8.62816 48.8086 11.1562C47.082 11.2448 45.3555 11.2448 43.6289 11.1562C42.4114 10.8242 41.6367 10.0495 41.3047 8.83203C41.2383 7.10604 41.2161 5.37948 41.2383 3.65234Z" fill="white"/>
<path opacity="0.935" fill-rule="evenodd" clip-rule="evenodd" d="M11.4882 11.2227C17.1551 11.2005 22.8218 11.2227 28.4882 11.2891C29.1156 11.6125 29.3148 12.1216 29.0859 12.8164C28.9309 12.9714 28.776 13.1263 28.621 13.2813C22.8659 13.3698 17.1106 13.3698 11.3554 13.2813C10.6168 12.5312 10.6611 11.845 11.4882 11.2227Z" fill="white"/>
<path opacity="0.937" fill-rule="evenodd" clip-rule="evenodd" d="M11.621 18.1289C22.6446 18.1067 33.668 18.1289 44.6913 18.1953C45.6426 18.7258 45.7312 19.3898 44.9569 20.1875C33.7565 20.2761 22.5558 20.2761 11.3554 20.1875C10.9747 20.0025 10.7976 19.6927 10.8241 19.2578C10.8176 18.6697 11.0832 18.2933 11.621 18.1289Z" fill="white"/>
<path opacity="0.937" fill-rule="evenodd" clip-rule="evenodd" d="M11.3555 24.3711C22.5561 24.3489 33.7566 24.3711 44.9571 24.4375C45.7314 25.2352 45.6428 25.8993 44.6915 26.4297C33.668 26.5183 22.6446 26.5183 11.6211 26.4297C11.0678 26.2989 10.8022 25.9447 10.8243 25.3672C10.815 24.9202 10.9921 24.5881 11.3555 24.3711Z" fill="white"/>
<path opacity="0.928" fill-rule="evenodd" clip-rule="evenodd" d="M40.8398 67.9336C40.1758 67.9336 39.5117 67.9336 38.8476 67.9336C37.8205 67.3972 36.8022 66.8217 35.793 66.207C34.1564 67.5334 32.4742 67.5998 30.7461 66.4062C30.4987 66.0923 30.2774 65.7603 30.082 65.4102C28.4365 65.7544 27.0419 65.3117 25.8984 64.082C25.6628 63.655 25.4636 63.2124 25.3008 62.7539C23.9846 62.766 22.9001 62.279 22.0469 61.293C21.7766 60.8864 21.6217 60.4436 21.582 59.9648C18.5815 59.8205 17.3198 58.2711 17.7969 55.3164C18.1652 54.6385 18.5858 53.9966 19.0586 53.3906C19.0144 53.3464 18.97 53.302 18.9258 53.2578C18.209 53.5139 17.4563 53.6689 16.668 53.7227C16.0723 53.7176 15.4967 53.607 14.9414 53.3906C14.1219 52.8701 13.2808 52.3831 12.418 51.9297C11.4959 51.1086 11.2524 50.1125 11.6875 48.9414C14.659 43.9499 17.6473 38.9694 20.6523 34C21.3868 33.4723 22.1837 33.3395 23.043 33.6016C24.0515 34.1242 25.0255 34.6997 25.9648 35.3281C27.0106 36.3423 27.4754 37.5598 27.3594 38.9805C28.2168 39.6544 29.1687 39.8536 30.2148 39.5781C31.5926 38.9417 33.0315 38.5211 34.5312 38.3164C35.7308 38.4432 36.8597 38.7975 37.918 39.3789C39.4537 38.9617 41.0032 38.6075 42.5664 38.3164C43.9544 38.5454 45.2825 38.966 46.5508 39.5781C47.1662 39.8035 47.7861 39.8257 48.4101 39.6445C47.9874 37.8594 48.4744 36.3764 49.8711 35.1953C50.9616 34.3937 52.1569 33.796 53.457 33.4023C54.2443 33.497 54.8862 33.8513 55.3828 34.4648C58.2161 39.2461 61.0495 44.0273 63.8828 48.8086C64.3609 49.7918 64.2723 50.7215 63.6172 51.5977C62.4413 52.4402 61.1795 53.1265 59.832 53.6562C59.0591 53.7824 58.3064 53.716 57.5742 53.457C57.1147 53.6739 56.6719 53.9174 56.2461 54.1875C57.3907 55.8844 57.2579 57.4782 55.8476 58.9688C54.7943 59.689 53.6434 59.8882 52.3945 59.5664C51.903 61.7409 50.5305 62.7149 48.2773 62.4883C47.9033 64.3612 46.7523 65.3793 44.8242 65.543C44.2877 65.503 43.7786 65.3702 43.2969 65.1445C42.913 66.4789 42.0941 67.4086 40.8398 67.9336ZM22.1133 35.6602C23.0898 36.0711 23.9974 36.6023 24.8359 37.2539C25.2218 37.938 25.266 38.6464 24.9687 39.3789C22.6581 43.1516 20.4003 46.9588 18.1953 50.8008C17.6618 51.4772 16.9756 51.7206 16.1367 51.5312C15.2514 51.0889 14.4103 50.5798 13.6133 50.0039C16.4482 45.2189 19.2814 40.4377 22.1133 35.6602ZM53.1914 35.6602C53.367 35.6376 53.522 35.6818 53.6562 35.793C56.4253 40.5091 59.1923 45.224 61.957 49.9375C61.227 50.6191 60.3859 51.1503 59.4336 51.5312C58.5768 51.6678 57.8906 51.38 57.375 50.668C56.346 48.831 55.2835 47.0159 54.1875 45.2227C53.612 44.6914 53.0364 44.6914 52.4609 45.2227C52.2721 45.5587 52.2278 45.9129 52.3281 46.2852C53.3969 48.1796 54.4815 50.0611 55.582 51.9297C55.243 52.2786 54.8445 52.5663 54.3867 52.793C49.8884 50.0881 45.3727 47.4098 40.8398 44.7578C39.5951 44.5857 39.0418 45.1391 39.1797 46.418C38.8583 47.6025 38.0836 48.2224 36.8555 48.2773C36.8333 46.5945 36.8555 44.9121 36.9219 43.2305C37.1524 42.3357 37.7059 41.7381 38.582 41.4375C39.9115 41.1051 41.2396 40.773 42.5664 40.4414C44.0024 40.9821 45.4633 41.4469 46.9492 41.8359C47.7711 41.913 48.5679 41.8023 49.3398 41.5039C49.6319 41.9313 49.9419 42.3518 50.2695 42.7656C51.4755 43.1926 52.0289 42.772 51.9297 41.5039C51.487 40.707 51.0442 39.9102 50.6016 39.1133C50.2848 38.2476 50.484 37.5171 51.1992 36.9219C51.8864 36.5195 52.5504 36.099 53.1914 35.6602ZM34.0664 40.4414C34.6449 40.409 35.1762 40.5418 35.6601 40.8398C35.2277 41.4392 34.94 42.1033 34.7969 42.832C34.7083 44.8684 34.7083 46.905 34.7969 48.9414C35.1912 49.9335 35.9217 50.4205 36.9883 50.4023C38.9461 50.2378 40.3406 49.2639 41.1719 47.4805C45.4883 50.0261 49.8047 52.5716 54.1211 55.1172C55.205 55.981 55.1607 56.7779 53.9883 57.5078C53.7226 57.5964 53.457 57.5964 53.1914 57.5078C50.2349 55.8341 47.313 54.1075 44.4258 52.3281C43.4192 51.7469 42.7551 52.0126 42.4336 53.125C42.5 53.3242 42.5664 53.5234 42.6328 53.7227C44.9682 55.2115 47.3366 56.6502 49.7383 58.0391C50.2204 58.4441 50.3754 58.9532 50.2031 59.5664C49.8906 60.2206 49.3815 60.4642 48.6758 60.2969C46.3076 58.958 43.9612 57.5856 41.6367 56.1797C40.2733 56.0149 39.8305 56.5682 40.3086 57.8398C41.9911 58.947 43.7176 59.9874 45.4883 60.9609C46.5028 62.0657 46.3036 62.8847 44.8906 63.418C43.0719 62.4753 41.2789 61.4792 39.5117 60.4297C38.241 60.3286 37.8203 60.882 38.25 62.0898C39.0337 62.6515 39.8528 63.1607 40.707 63.6172C41.4425 65.0686 40.9999 65.7769 39.3789 65.7422C38.5377 65.3218 37.7408 64.8349 36.9883 64.2812C38.0014 61.8128 37.2487 60.1084 34.7305 59.168C35.1749 56.3004 33.9353 54.751 31.0117 54.5195C30.3051 52.5053 28.8884 51.6862 26.7617 52.0625C26.2376 52.236 25.7507 52.4794 25.3008 52.793C24.0044 51.2229 22.4328 50.8688 20.5859 51.7305C20.3433 51.4763 20.3433 51.2106 20.5859 50.9336C22.5291 47.6202 24.5213 44.3441 26.5625 41.1055C28.0226 41.9328 29.55 42.0876 31.1445 41.5703C32.1279 41.1768 33.1019 40.8005 34.0664 40.4414ZM22.2461 53.3242C23.5048 53.5841 23.881 54.2924 23.375 55.4492C22.9323 56.0691 22.4895 56.6888 22.0469 57.3086C21.2998 58.0304 20.5915 57.9862 19.9219 57.1758C19.7691 56.8764 19.7248 56.5666 19.7891 56.2461C20.243 55.4709 20.7299 54.7182 21.25 53.9883C21.5382 53.6798 21.8702 53.4584 22.2461 53.3242ZM27.1601 54.1211C28.427 54.0373 28.9805 54.6129 28.8203 55.8477C27.8906 57.1758 26.9609 58.5039 26.0312 59.832C25.3182 60.6552 24.5655 60.6996 23.7734 59.9648C23.6074 59.6226 23.5631 59.2685 23.6406 58.9023C24.6973 57.2065 25.8705 55.6127 27.1601 54.1211ZM31.2773 56.7773C32.6432 57.0298 33.0194 57.7825 32.4062 59.0352C31.4544 60.3411 30.5026 61.6472 29.5508 62.9531C28.9753 63.3958 28.3997 63.3958 27.8242 62.9531C27.3855 62.4491 27.3191 61.8957 27.625 61.293C28.5105 60.0534 29.3958 58.8138 30.2812 57.5742C30.5647 57.2219 30.8967 56.9562 31.2773 56.7773ZM33.668 61.293C35.1394 61.3667 35.6042 62.075 35.0625 63.418C34.6894 63.9638 34.2689 64.4729 33.8008 64.9453C32.7558 65.3302 32.0917 64.976 31.8086 63.8828C32.2028 62.8483 32.8226 61.9851 33.668 61.293Z" fill="white"/>
</g>
<defs>
<clipPath id="clip0_103_271">
<rect width="68" height="68" fill="white"/>
</clipPath>
</defs>
</svg>
