<svg width="68" height="68" viewBox="0 0 68 68" fill="none" xmlns="http://www.w3.org/2000/svg">
<g clip-path="url(#clip0_103_231)">
<path opacity="0.932" fill-rule="evenodd" clip-rule="evenodd" d="M39.1133 -0.0664062C40.4856 -0.0664062 41.8581 -0.0664062 43.2305 -0.0664062C50.2811 1.27304 54.6639 5.4345 56.3789 12.418C60.1202 13.9682 63.839 15.584 67.5352 17.2656C67.686 17.4177 67.8188 17.5727 67.9336 17.7305C67.9336 29.3737 67.9336 41.0169 67.9336 52.6602C67.4737 53.3508 66.8538 53.5058 66.0742 53.125C65.9911 53.0254 65.9247 52.9146 65.875 52.793C65.8528 41.4594 65.7864 30.126 65.6758 18.793C62.6777 17.482 59.6894 16.1539 56.7109 14.8086C56.7617 17.5718 56.164 20.1838 54.918 22.6445C55.6243 23.4174 56.3547 24.1699 57.1094 24.9023C57.2366 25.128 57.303 25.3716 57.3086 25.6328C57.2521 25.981 57.1857 26.3131 57.1094 26.6289C59.2382 28.7134 61.319 30.8384 63.3516 33.0039C64.3009 35.7979 63.327 37.4801 60.4297 38.0508C59.8516 37.9795 59.2981 37.8246 58.7695 37.5859C56.604 35.5534 54.479 33.4726 52.3945 31.3438C52.0948 31.4018 51.7849 31.4682 51.4648 31.543C51.4648 33.9778 51.4648 36.4128 51.4648 38.8477C52.8401 38.7863 53.2386 39.384 52.6602 40.6406C52.2867 40.8464 51.8882 40.957 51.4648 40.9727C51.4648 43.6731 51.4648 46.3737 51.4648 49.0742C52.2956 48.9097 52.7826 49.2417 52.9258 50.0703C52.7703 50.8672 52.2832 51.2434 51.4648 51.1992C51.4206 53.8127 51.4648 56.4247 51.5977 59.0352C56.2903 61.1159 60.9831 63.1966 65.6758 65.2773C65.7864 62.135 65.8528 58.9919 65.875 55.8477C66.6024 54.9564 67.2885 55.0006 67.9336 55.9805C67.9336 59.7434 67.9336 63.5066 67.9336 67.2695C67.7605 67.4876 67.5835 67.709 67.4023 67.9336C67.0481 67.9336 66.6941 67.9336 66.3398 67.9336C61.0408 65.5904 55.7283 63.244 50.4023 60.8945C45.0542 63.1925 39.7417 65.5387 34.4648 67.9336C34.1106 67.9336 33.7566 67.9336 33.4023 67.9336C28.142 65.5517 22.8517 63.2053 17.5312 60.8945C12.1769 63.2294 6.84226 65.5756 1.52734 67.9336C1.17318 67.9336 0.819011 67.9336 0.464844 67.9336C0.28373 67.709 0.106647 67.4876 -0.0664062 67.2695C-0.0664062 54.2981 -0.0664062 41.3269 -0.0664062 28.3555C0.393534 27.6648 1.01332 27.5099 1.79297 27.8906C1.87608 27.9902 1.94249 28.101 1.99219 28.2227C2.01433 40.5745 2.08073 52.926 2.19141 65.2773C6.88411 63.1966 11.5768 61.1159 16.2695 59.0352C16.4466 43.5403 16.4466 28.0456 16.2695 12.5508C11.5768 14.6316 6.88411 16.7122 2.19141 18.793C2.08079 20.9166 2.01438 23.0416 1.99219 25.168C1.25767 26.0541 0.571475 26.0097 -0.0664062 25.0352C-0.0664062 22.6003 -0.0664062 20.1653 -0.0664062 17.7305C0.223875 17.3173 0.622313 17.0295 1.12891 16.8672C6.5854 14.4728 12.0529 12.1044 17.5312 9.76172C20.2773 10.9023 22.9999 12.0976 25.6992 13.3477C26.8195 6.93745 30.4497 2.66532 36.5898 0.53125C37.4465 0.320716 38.2876 0.121496 39.1133 -0.0664062ZM40.8398 1.92578C47.7167 2.27483 52.166 5.72795 54.1875 12.2852C55.2592 17.7475 53.6876 22.2853 49.4727 25.8984C44.5808 29.3488 39.4895 29.6586 34.1992 26.8281C29.4819 23.7011 27.3789 19.2961 27.8906 13.6133C28.9404 7.82645 32.2827 4.08558 37.918 2.39062C38.9024 2.17724 39.8763 2.02228 40.8398 1.92578ZM41.1055 11.8867C41.4394 12.4869 41.7936 13.0846 42.168 13.6797C42.861 13.8737 43.5694 14.0065 44.293 14.0781C43.7791 14.5475 43.3143 15.0566 42.8984 15.6055C42.9141 16.3176 42.9583 17.026 43.0312 17.7305C42.472 17.3732 41.8743 17.1076 41.2383 16.9336C40.5664 17.1822 39.9023 17.4257 39.2461 17.6641C39.4678 16.9964 39.5342 16.3102 39.4453 15.6055C39.0738 15.1009 38.6532 14.6361 38.1836 14.2109C38.8562 14.0704 39.5202 13.8934 40.1758 13.6797C40.5741 13.1265 40.8841 12.5288 41.1055 11.8867ZM18.5273 12.5508C20.8864 13.5308 23.2328 14.5491 25.5664 15.6055C25.7323 19.8978 27.326 23.5502 30.3477 26.5625C29.8496 26.597 29.3627 26.6856 28.8867 26.8281C28.3184 27.4966 28.3626 28.1164 29.0195 28.6875C29.7722 28.7761 30.5247 28.7761 31.2773 28.6875C31.6147 28.5494 31.8361 28.3058 31.9414 27.957C32.2467 28.1078 32.5345 28.2848 32.8047 28.4883C32.8933 40.7513 32.8933 53.0144 32.8047 65.2773C28.0867 63.21 23.3718 61.1293 18.6602 59.0352C18.5273 56.4247 18.4831 53.8127 18.5273 51.1992C19.2046 51.2424 19.8686 51.176 20.5195 51C21.2278 50.3802 21.2278 49.7605 20.5195 49.1406C19.8569 49.0744 19.1929 49.0522 18.5273 49.0742C18.5273 36.8997 18.5273 24.7253 18.5273 12.5508ZM53.5898 24.6367C54.0413 24.8875 54.4397 25.2195 54.7852 25.6328C53.6562 26.7617 52.5273 27.8906 51.3984 29.0195C51.0421 28.6854 50.7101 28.3312 50.4023 27.957C51.6465 27.0227 52.709 25.916 53.5898 24.6367ZM55.3164 28.0898C57.3858 29.9597 59.4001 31.9075 61.3594 33.9336C61.8635 34.9195 61.5757 35.5835 60.4961 35.9258C60.225 35.828 59.9594 35.7174 59.6992 35.5938C57.7734 33.668 55.8477 31.7422 53.9219 29.8164C53.8333 29.7278 53.8333 29.6394 53.9219 29.5508C54.4138 29.0812 54.8787 28.5943 55.3164 28.0898ZM48.2773 29.1523C48.6617 29.3359 48.9937 29.6015 49.2734 29.9492C49.3841 39.6448 49.362 49.3401 49.207 59.0352C44.498 61.1353 39.7832 63.216 35.0625 65.2773C34.9961 60.5848 34.9739 55.8921 34.9961 51.1992C35.4972 51.2307 35.9842 51.1643 36.457 51C37.1653 50.3802 37.1653 49.7605 36.457 49.1406C35.972 49.0744 35.4851 49.0523 34.9961 49.0742C34.9961 46.3737 34.9961 43.6731 34.9961 40.9727C35.5382 40.9934 36.0695 40.927 36.5898 40.7734C37.0592 40.2321 37.1034 39.6566 36.7227 39.0469C36.1648 38.8653 35.5894 38.7989 34.9961 38.8477C34.9519 35.7916 34.9961 32.737 35.1289 29.6836C38.7025 31.0907 42.3328 31.2457 46.0195 30.1484C46.8153 29.8827 47.5679 29.5506 48.2773 29.1523ZM9.09766 40.3086C10.6925 40.5388 11.3344 41.4242 11.0234 42.9648C10.3527 44.1623 9.40089 44.4501 8.16797 43.8281C7.24471 42.9719 7.13402 42.0201 7.83594 40.9727C8.22208 40.6582 8.64265 40.4368 9.09766 40.3086Z" fill="white"/>
<path opacity="0.925" fill-rule="evenodd" clip-rule="evenodd" d="M40.3086 3.51948C46.036 3.48046 50.0204 6.0703 52.2618 11.289C54.0035 17.2208 52.3655 21.9578 47.3477 25.4999C44.4362 27.1893 41.3371 27.632 38.0508 26.8281C32.9252 25.1545 30.0255 21.635 29.3516 16.2695C29.1569 13.4841 29.8431 10.9386 31.4102 8.63276C32.3738 8.16231 32.9935 8.42794 33.2696 9.42963C32.9143 10.2067 32.538 10.9815 32.1407 11.7539C30.6475 16.2523 31.6878 20.0375 35.2618 23.1093C38.8259 25.4721 42.5004 25.6491 46.2852 23.6406C50.7359 20.3375 51.9091 16.1097 49.8047 10.957C47.1614 6.57726 43.3319 4.96137 38.3165 6.10932C37.1691 6.5505 36.0624 7.05961 34.9961 7.63666C34.0036 7.4226 33.716 6.84708 34.1329 5.9101C35.9693 4.5235 38.0279 3.72663 40.3086 3.51948ZM41.1055 11.8867C40.8841 12.5287 40.5741 13.1264 40.1758 13.6796C39.5203 13.8933 38.8562 14.0704 38.1836 14.2109C38.6533 14.636 39.0739 15.1009 39.4454 15.6054C39.5342 16.3101 39.4678 16.9964 39.2461 17.664C39.9024 17.4256 40.5664 17.1822 41.2383 16.9335C41.8744 17.1075 42.472 17.3731 43.0313 17.7304C42.9584 17.026 42.9142 16.3176 42.8985 15.6054C43.3143 15.0565 43.7792 14.5474 44.293 14.0781C43.5695 14.0065 42.861 13.8737 42.168 13.6796C41.7936 13.0845 41.4394 12.4869 41.1055 11.8867Z" fill="white"/>
<path opacity="0.932" fill-rule="evenodd" clip-rule="evenodd" d="M40.5743 8.4337C41.2015 8.30794 41.7106 8.48502 42.1016 8.96495C42.5664 9.89464 43.0313 10.8243 43.4961 11.754C44.693 11.9424 45.8883 12.1416 47.0821 12.3517C47.6469 12.8059 47.7577 13.3593 47.4141 14.0118C46.6614 14.7645 45.9089 15.517 45.1563 16.2696C45.2523 17.3781 45.4073 18.4848 45.6211 19.5899C45.4843 20.6485 44.9089 20.9805 43.8946 20.586C43.0301 20.0873 42.1446 19.6225 41.2383 19.1915C40.3086 19.7006 39.3789 20.2098 38.4493 20.7189C37.0823 20.9782 36.5733 20.4248 36.9219 19.0587C37.0405 18.1832 37.1954 17.3199 37.3868 16.4689C36.4834 15.6984 35.6201 14.8794 34.7969 14.0118C34.7083 13.6576 34.7083 13.3035 34.7969 12.9493C34.8633 12.7058 35.0183 12.5509 35.2618 12.4845C36.4162 12.2753 37.5672 12.054 38.7149 11.8204C39.2328 10.8951 39.6977 9.94326 40.1094 8.96495C40.2922 8.8049 40.447 8.62782 40.5743 8.4337ZM41.1055 11.8868C40.8841 12.5289 40.5741 13.1266 40.1758 13.6798C39.5203 13.8935 38.8562 14.0705 38.1836 14.211C38.6533 14.6362 39.0739 15.101 39.4453 15.6056C39.5342 16.3103 39.4678 16.9965 39.2461 17.6642C39.9024 17.4258 40.5664 17.1823 41.2383 16.9337C41.8744 17.1077 42.472 17.3733 43.0313 17.7306C42.9584 17.0261 42.9141 16.3177 42.8985 15.6056C43.3143 15.0567 43.7792 14.5476 44.293 14.0782C43.5694 14.0066 42.861 13.8738 42.168 13.6798C41.7936 13.0847 41.4394 12.487 41.1055 11.8868Z" fill="white"/>
<path opacity="0.889" fill-rule="evenodd" clip-rule="evenodd" d="M25.168 27.6915C26.4019 27.4527 26.911 27.9396 26.6953 29.1524C26.277 29.6145 25.8121 30.0351 25.3008 30.4142C24.4159 30.7685 23.8402 30.4808 23.5742 29.5509C23.672 29.2798 23.7826 29.0142 23.9062 28.754C24.3522 28.4179 24.7727 28.0636 25.168 27.6915Z" fill="white"/>
<path opacity="0.896" fill-rule="evenodd" clip-rule="evenodd" d="M22.7774 31.9414C23.2342 31.9532 23.6104 32.1303 23.9063 32.4727C23.9949 33.2695 23.9949 34.0664 23.9063 34.8633C23.7213 35.2439 23.4115 35.421 22.9766 35.3945C22.0674 35.2725 21.6912 34.7412 21.8477 33.8008C21.7277 32.9273 22.0377 32.3076 22.7774 31.9414Z" fill="white"/>
<path opacity="0.889" fill-rule="evenodd" clip-rule="evenodd" d="M24.2384 36.8555C25.1759 37.0494 25.9506 37.5364 26.5626 38.3164C26.8018 39.211 26.4698 39.7423 25.5665 39.9102C24.8813 39.646 24.2837 39.2476 23.7735 38.7148C23.3928 37.9352 23.5477 37.3154 24.2384 36.8555Z" fill="white"/>
<path opacity="0.927" fill-rule="evenodd" clip-rule="evenodd" d="M9.09763 38.1836C12.4058 38.6482 13.7118 40.5075 13.0156 43.7617C12.5558 44.9962 11.6925 45.7931 10.4258 46.1523C10.3152 47.5669 10.2488 48.9836 10.2265 50.4023C9.77227 50.9672 9.21888 51.078 8.56638 50.7344C8.40682 50.6144 8.29614 50.4596 8.23435 50.2695C8.21208 48.8951 8.14567 47.5226 8.03513 46.1523C5.64788 45.1407 4.7846 43.3698 5.44529 40.8398C6.16417 39.2563 7.38162 38.3709 9.09763 38.1836ZM9.09763 40.3086C8.64263 40.4368 8.22205 40.6582 7.83592 40.9727C7.134 42.0201 7.24469 42.9719 8.16795 43.8281C9.40087 44.4501 10.3527 44.1623 11.0234 42.9648C11.3344 41.4242 10.6925 40.5388 9.09763 40.3086Z" fill="white"/>
<path opacity="0.899" fill-rule="evenodd" clip-rule="evenodd" d="M28.754 38.8477C29.655 38.7919 30.5403 38.8583 31.4102 39.0469C31.9775 40.4106 31.5126 41.0525 30.0157 40.9727C28.3124 40.9625 27.8918 40.2541 28.754 38.8477Z" fill="white"/>
<path opacity="0.899" fill-rule="evenodd" clip-rule="evenodd" d="M39.379 38.8477C40.28 38.7919 41.1653 38.8583 42.0352 39.0469C42.6025 40.4106 42.1376 41.0525 40.6407 40.9727C38.9374 40.9625 38.5168 40.2541 39.379 38.8477Z" fill="white"/>
<path opacity="0.899" fill-rule="evenodd" clip-rule="evenodd" d="M44.6915 38.8477C45.5925 38.7919 46.4778 38.8583 47.3477 39.0469C47.915 40.4106 47.4501 41.0525 45.9532 40.9727C44.2499 40.9625 43.8293 40.2541 44.6915 38.8477Z" fill="white"/>
<path opacity="0.896" fill-rule="evenodd" clip-rule="evenodd" d="M55.3164 38.8477C56.1733 38.7924 57.0144 38.8588 57.8398 39.0469C58.2242 39.4332 58.3348 39.8981 58.1719 40.4414C58.0106 40.6472 57.8114 40.802 57.5742 40.9063C56.8123 41.0111 56.0598 40.9668 55.3164 40.7735C54.6387 40.1378 54.6387 39.4959 55.3164 38.8477Z" fill="white"/>
<path opacity="0.882" fill-rule="evenodd" clip-rule="evenodd" d="M60.0977 40.8399C60.8742 40.7523 61.4275 41.0621 61.7578 41.7696C62.3257 42.5014 62.3478 43.2319 61.8242 43.961C61.3656 44.2447 60.9228 44.2225 60.4961 43.8946C60.0383 43.289 59.6841 42.6249 59.4336 41.9024C59.5254 41.4502 59.7468 41.0961 60.0977 40.8399Z" fill="white"/>
<path opacity="0.886" fill-rule="evenodd" clip-rule="evenodd" d="M60.7616 45.8867C61.6149 45.7584 62.102 46.1126 62.2226 46.9492C62.06 48.0309 61.4844 48.7836 60.496 49.207C59.6435 48.9971 59.3114 48.4659 59.4999 47.6132C59.8323 47.2145 60.098 46.7719 60.2968 46.2851C60.4489 46.1342 60.6038 46.0014 60.7616 45.8867Z" fill="white"/>
<path opacity="0.894" fill-rule="evenodd" clip-rule="evenodd" d="M56.6445 48.9415C57.8874 48.9205 58.3522 49.496 58.0391 50.668C57.9191 50.8275 57.7643 50.9383 57.5742 51.0001C56.7736 51.2288 55.9768 51.2288 55.1836 51.0001C54.7449 50.496 54.6785 49.9426 54.9844 49.3399C55.5334 49.1425 56.0869 49.0097 56.6445 48.9415Z" fill="white"/>
<path opacity="0.899" fill-rule="evenodd" clip-rule="evenodd" d="M12.8164 49.0742C13.6145 49.0521 14.4114 49.0743 15.2071 49.1406C15.9154 49.7604 15.9154 50.3801 15.2071 50.9999C14.303 51.2935 13.4177 51.2492 12.5508 50.8671C12.1387 50.1879 12.2272 49.5903 12.8164 49.0742Z" fill="white"/>
<path opacity="0.896" fill-rule="evenodd" clip-rule="evenodd" d="M23.4413 49.0742C24.2394 49.0521 25.0363 49.0743 25.832 49.1406C26.5402 49.7604 26.5402 50.3801 25.832 50.9999C24.9279 51.2935 24.0426 51.2492 23.1757 50.8671C22.7644 50.1821 22.853 49.5844 23.4413 49.0742Z" fill="white"/>
<path opacity="0.894" fill-rule="evenodd" clip-rule="evenodd" d="M28.754 49.0742C29.5521 49.0521 30.349 49.0743 31.1447 49.1406C31.8529 49.7604 31.8529 50.3801 31.1447 50.9999C30.2406 51.2935 29.3553 51.2492 28.4884 50.8671C28.0779 50.1764 28.1663 49.5787 28.754 49.0742Z" fill="white"/>
<path opacity="0.894" fill-rule="evenodd" clip-rule="evenodd" d="M39.3788 49.0742C40.1769 49.0521 40.9737 49.0743 41.7694 49.1406C42.4777 49.7604 42.4777 50.3801 41.7694 50.9999C40.8654 51.2935 39.98 51.2492 39.1132 50.8671C38.7026 50.1764 38.7911 49.5787 39.3788 49.0742Z" fill="white"/>
<path opacity="0.894" fill-rule="evenodd" clip-rule="evenodd" d="M44.6913 49.0742C45.4894 49.0521 46.2862 49.0743 47.0819 49.1406C47.7902 49.7604 47.7902 50.3801 47.0819 50.9999C46.1779 51.2935 45.2925 51.2492 44.4257 50.8671C44.0151 50.1764 44.1036 49.5787 44.6913 49.0742Z" fill="white"/>
</g>
<defs>
<clipPath id="clip0_103_231">
<rect width="68" height="68" fill="white"/>
</clipPath>
</defs>
</svg>
