<svg width="68" height="68" viewBox="0 0 68 68" fill="none" xmlns="http://www.w3.org/2000/svg">
<path opacity="0.911" fill-rule="evenodd" clip-rule="evenodd" d="M19.8555 6.04297C29.2409 6.02083 38.6264 6.04297 48.0117 6.10938C48.0949 6.20904 48.1613 6.31973 48.2109 6.44141C48.2773 7.94596 48.2995 9.45118 48.2773 10.957C53.6547 11.7727 56.5323 14.8937 56.9102 20.3203C56.5424 25.757 53.6649 28.8781 48.2773 29.6836C48.2773 30.8347 48.2773 31.9856 48.2773 33.1367C52.6161 33.1145 56.9547 33.1367 61.293 33.2031C61.483 33.2649 61.6379 33.3757 61.7578 33.5352C61.8464 42.8763 61.8464 52.2175 61.7578 61.5586C61.6914 61.625 61.625 61.6914 61.5586 61.7578C43.1419 61.8464 24.7253 61.8464 6.3086 61.7578C6.24219 61.6914 6.17578 61.625 6.10938 61.5586C6.02083 52.2175 6.02083 42.8763 6.10938 33.5352C6.22924 33.3757 6.38419 33.2649 6.57422 33.2031C10.9125 33.1367 15.2511 33.1145 19.5898 33.1367C19.5677 24.2381 19.5898 15.3397 19.6563 6.44141C19.7244 6.30506 19.7908 6.17225 19.8555 6.04297ZM21.0508 7.50391C23.5742 7.50391 26.0977 7.50391 28.6211 7.50391C28.5989 10.1605 28.6211 12.8168 28.6875 15.4727C28.8827 15.6921 29.1262 15.8249 29.418 15.8711C30.9231 15.03 32.4284 14.1888 33.9336 13.3477C35.367 14.131 36.7836 14.95 38.1836 15.8047C38.6426 15.9182 38.9746 15.7634 39.1797 15.3398C39.2461 12.7282 39.2683 10.1163 39.2461 7.50391C41.7695 7.50391 44.293 7.50391 46.8164 7.50391C46.8164 8.65495 46.8164 9.80599 46.8164 10.957C41.4263 11.7649 38.5488 14.886 38.1836 20.3203C38.3592 24.8337 40.5726 27.8441 44.8242 29.3516C45.4766 29.5396 46.1407 29.6503 46.8164 29.6836C46.8164 30.8347 46.8164 31.9856 46.8164 33.1367C38.2278 33.1367 29.6394 33.1367 21.0508 33.1367C21.0508 24.5925 21.0508 16.0481 21.0508 7.50391ZM30.082 7.50391C32.6497 7.50391 35.2175 7.50391 37.7852 7.50391C37.8073 9.58511 37.7852 11.6658 37.7188 13.7461C36.4779 12.9823 35.2162 12.2739 33.9336 11.6211C32.651 12.2739 31.3893 12.9823 30.1484 13.7461C30.082 11.6658 30.0599 9.58511 30.082 7.50391ZM46.5508 12.418C51.3809 12.3195 54.325 14.6216 55.3828 19.3242C55.5342 24.0935 53.2986 27.0376 48.6758 28.1563C45.1748 28.4974 42.4964 27.1914 40.6406 24.2383C38.7458 20.0195 39.6091 16.5 43.2305 13.6797C44.2893 13.084 45.396 12.6634 46.5508 12.418ZM7.50391 34.7305C10.0273 34.7305 12.5508 34.7305 15.0742 34.7305C15.052 37.3871 15.0742 40.0434 15.1406 42.6992C15.332 42.8812 15.5534 43.014 15.8047 43.0977C17.3275 42.2475 18.8327 41.3621 20.3203 40.4414C21.8079 41.3621 23.3131 42.2475 24.8359 43.0977C25.2786 43.0091 25.5442 42.7434 25.6328 42.3008C25.6992 39.7777 25.7214 37.2543 25.6992 34.7305C28.1784 34.7305 30.6575 34.7305 33.1367 34.7305C33.1367 43.2747 33.1367 51.8191 33.1367 60.3633C24.5925 60.3633 16.0481 60.3633 7.50391 60.3633C7.50391 51.8191 7.50391 43.2747 7.50391 34.7305ZM16.5352 34.7305C19.0586 34.7305 21.582 34.7305 24.1055 34.7305C24.1497 36.7689 24.1053 38.8053 23.9727 40.8398C22.7965 40.0804 21.579 39.4164 20.3203 38.8477C19.0617 39.4164 17.8442 40.0804 16.668 40.8398C16.5353 38.8053 16.4909 36.7689 16.5352 34.7305ZM34.7305 34.7305C37.2097 34.7305 39.6888 34.7305 42.168 34.7305C42.1458 37.2985 42.168 39.8663 42.2344 42.4336C42.3801 42.8008 42.6457 43.0221 43.0313 43.0977C44.5541 42.2475 46.0592 41.3621 47.5469 40.4414C49.0345 41.3621 50.5397 42.2475 52.0625 43.0977C52.3138 43.014 52.5352 42.8812 52.7266 42.6992C52.793 40.0434 52.8152 37.3871 52.793 34.7305C55.3164 34.7305 57.8398 34.7305 60.3633 34.7305C60.3633 43.2747 60.3633 51.8191 60.3633 60.3633C51.8191 60.3633 43.2747 60.3633 34.7305 60.3633C34.7305 51.8191 34.7305 43.2747 34.7305 34.7305ZM43.7617 34.7305C46.2852 34.7305 48.8086 34.7305 51.332 34.7305C51.3763 36.7689 51.3319 38.8053 51.1992 40.8398C50.023 40.0804 48.8055 39.4164 47.5469 38.8477C46.2882 39.4164 45.0707 40.0804 43.8945 40.8398C43.7619 38.8053 43.7175 36.7689 43.7617 34.7305Z" fill="white"/>
<path opacity="0.894" fill-rule="evenodd" clip-rule="evenodd" d="M51.9961 16.4023C52.4475 16.6531 52.846 16.9851 53.1914 17.3984C50.8413 19.7929 48.4507 22.1393 46.0195 24.4375C45.7819 24.5066 45.5605 24.4623 45.3555 24.3047C44.2044 23.1536 43.0534 22.0026 41.9023 20.8516C42.2365 20.4952 42.5907 20.1632 42.9648 19.8555C43.9369 20.7611 44.8888 21.6908 45.8203 22.6445C47.9057 20.5813 49.9643 18.5006 51.9961 16.4023Z" fill="white"/>
<path opacity="0.904" fill-rule="evenodd" clip-rule="evenodd" d="M24.6367 26.0977C25.1237 26.0977 25.6106 26.0977 26.0977 26.0977C26.0977 27.5586 26.0977 29.0195 26.0977 30.4805C25.6106 30.4805 25.1237 30.4805 24.6367 30.4805C24.6367 29.0195 24.6367 27.5586 24.6367 26.0977Z" fill="white"/>
<path opacity="0.904" fill-rule="evenodd" clip-rule="evenodd" d="M27.8242 26.0977C28.3112 26.0977 28.7981 26.0977 29.2852 26.0977C29.2852 27.5586 29.2852 29.0195 29.2852 30.4805C28.7981 30.4805 28.3112 30.4805 27.8242 30.4805C27.8242 29.0195 27.8242 27.5586 27.8242 26.0977Z" fill="white"/>
<path opacity="0.828" fill-rule="evenodd" clip-rule="evenodd" d="M10.957 53.3242C11.4883 53.3242 12.0195 53.3242 12.5508 53.3242C12.5508 54.7852 12.5508 56.2461 12.5508 57.707C12.0195 57.707 11.4883 57.707 10.957 57.707C10.957 56.2461 10.957 54.7852 10.957 53.3242Z" fill="white"/>
<path opacity="0.828" fill-rule="evenodd" clip-rule="evenodd" d="M14.1445 53.3242C14.6758 53.3242 15.207 53.3242 15.7383 53.3242C15.7383 54.7852 15.7383 56.2461 15.7383 57.707C15.207 57.707 14.6758 57.707 14.1445 57.707C14.1445 56.2461 14.1445 54.7852 14.1445 53.3242Z" fill="white"/>
<path opacity="0.904" fill-rule="evenodd" clip-rule="evenodd" d="M38.1836 53.3242C38.6706 53.3242 39.1575 53.3242 39.6445 53.3242C39.6445 54.7852 39.6445 56.2461 39.6445 57.707C39.1575 57.707 38.6706 57.707 38.1836 57.707C38.1836 56.2461 38.1836 54.7852 38.1836 53.3242Z" fill="white"/>
<path opacity="0.904" fill-rule="evenodd" clip-rule="evenodd" d="M41.3711 53.3242C41.8581 53.3242 42.345 53.3242 42.832 53.3242C42.832 54.7852 42.832 56.2461 42.832 57.707C42.345 57.707 41.8581 57.707 41.3711 57.707C41.3711 56.2461 41.3711 54.7852 41.3711 53.3242Z" fill="white"/>
</svg>
