<svg width="68" height="68" viewBox="0 0 68 68" fill="none" xmlns="http://www.w3.org/2000/svg">
<path opacity="0.923" fill-rule="evenodd" clip-rule="evenodd" d="M30.7462 2.9884C32.9218 2.94611 35.091 2.99037 37.254 3.12121C37.398 3.27595 37.5086 3.45303 37.586 3.65246C38.4452 6.36271 39.3306 9.06323 40.2423 11.754C41.3277 12.293 42.4567 12.6693 43.629 12.8829C45.931 11.422 48.2332 9.96105 50.5352 8.50011C51.0223 8.23449 51.5092 8.23449 51.9962 8.50011C53.349 9.69816 54.7215 10.8713 56.1134 12.0196C56.3281 12.3027 56.3945 12.6126 56.3126 12.9493C55.1673 15.6792 54.1048 18.424 53.1251 21.1837C53.6748 22.174 54.2725 23.1257 54.9181 24.0392C57.7972 24.4267 60.6747 24.8252 63.5509 25.2345C63.8972 25.4175 64.0965 25.7053 64.1485 26.0978C64.5596 28.0321 64.8252 29.9799 64.9454 31.9415C64.8348 32.0522 64.724 32.1629 64.6134 32.2736C62.0363 33.5731 59.4907 34.9233 56.9766 36.3243C56.7205 37.3304 56.5212 38.3487 56.379 39.379C56.3952 39.6833 56.5058 39.9489 56.711 40.1759C58.4376 42.0353 60.1641 43.8946 61.8907 45.754C62.257 46.1309 62.3898 46.5736 62.2891 47.0821C61.3931 48.7418 60.4634 50.3797 59.5001 51.9962C59.2764 52.2042 59.0108 52.337 58.7032 52.3946C55.8905 51.7834 53.0793 51.1636 50.2696 50.5353C50.0351 50.6138 49.8137 50.7244 49.6056 50.8673C48.9193 51.465 48.2332 52.0626 47.547 52.6603C47.5742 55.7155 47.6185 58.7702 47.6798 61.8243C47.5248 61.9793 47.3699 62.1342 47.2149 62.2892C45.4985 62.9352 43.7719 63.5549 42.0352 64.1486C41.6784 64.2199 41.3463 64.1535 41.0391 63.9493C39.2904 61.6693 37.5418 59.3895 35.7931 57.1095C34.5977 57.0209 33.4024 57.0209 32.2071 57.1095C30.4961 59.2187 28.8359 61.3659 27.2266 63.5509C26.8882 64.0636 26.4234 64.2628 25.8321 64.1486C24.3814 63.5911 22.9205 63.0599 21.4493 62.5548C21.0301 62.4304 20.6539 62.2311 20.3204 61.9571C20.2776 59.8754 20.2776 57.7947 20.3204 55.715C18.3229 57.9336 16.3749 60.1914 14.4766 62.4884C12.316 64.8271 9.72612 65.469 6.70712 64.4142C3.23788 62.5096 2.10898 59.6542 3.3204 55.8478C3.6219 55.2371 3.97607 54.6616 4.3829 54.1212C5.54359 53.0652 6.71677 52.0249 7.90243 51.0001C7.15519 49.7493 6.42472 48.4876 5.71102 47.215C5.62248 46.9051 5.62248 46.5951 5.71102 46.2853C7.70992 44.0435 9.67997 41.7857 11.6212 39.5118C11.4244 38.4169 11.203 37.3324 10.9571 36.2579C8.30295 34.931 5.69098 33.5365 3.12118 32.0743C2.99547 31.8673 2.90693 31.6459 2.85555 31.4103C3.20189 29.5537 3.53392 27.6943 3.85165 25.8321C3.96232 25.5443 4.16154 25.3451 4.4493 25.2345C7.28081 24.8237 10.1141 24.4253 12.9493 24.0392C13.2219 23.9157 13.4211 23.7164 13.547 23.4415C13.9949 22.6117 14.4598 21.7927 14.9415 20.9845C13.8055 18.3741 12.7209 15.74 11.6876 13.0821C11.528 12.512 11.683 12.0472 12.1524 11.6876C13.5193 10.6309 14.8475 9.5241 16.1368 8.3673C16.491 8.27876 16.8451 8.27876 17.1993 8.3673C19.6225 9.94932 22.0795 11.4767 24.5704 12.9493C25.6891 12.607 26.7516 12.1643 27.7579 11.6212C28.6196 9.01552 29.4607 6.40355 30.2813 3.78527C30.4043 3.49419 30.5593 3.22856 30.7462 2.9884ZM32.0743 4.98058C33.3613 4.93652 34.645 4.9808 35.9259 5.1134C36.8023 7.7648 37.6656 10.421 38.5157 13.0821C38.6769 13.2879 38.8762 13.4427 39.1134 13.547C40.4313 14.06 41.7594 14.5471 43.0977 15.0079C43.4076 15.0965 43.7176 15.0965 44.0274 15.0079C46.4004 13.4985 48.791 12.0155 51.1993 10.5587C52.1634 11.3398 53.1153 12.1367 54.0548 12.9493C53.1191 15.5323 52.1008 18.0999 51.0001 20.6525C50.8952 21.0687 50.9394 21.4671 51.1329 21.8478C51.9076 23.1317 52.6824 24.4154 53.4571 25.6993C53.5899 25.7657 53.7227 25.8321 53.8556 25.8986C56.6485 26.2723 59.4375 26.6707 62.2227 27.0939C62.4862 28.2314 62.7076 29.3824 62.8868 30.547C62.8755 30.694 62.8312 30.8268 62.754 30.9454C60.1765 32.2894 57.6309 33.6839 55.1173 35.129C54.7794 36.7357 54.4916 38.3515 54.254 39.9767C54.2386 40.3146 54.3492 40.6024 54.586 40.84C56.4232 42.8543 58.2605 44.8686 60.0977 46.8829C59.4726 48.0226 58.8307 49.1515 58.172 50.2696C55.397 49.6092 52.6079 48.9895 49.8048 48.4103C49.4304 48.4757 49.0983 48.6307 48.8087 48.8751C47.7116 49.8113 46.627 50.7632 45.5548 51.7306C45.5185 51.9432 45.4521 52.1424 45.3556 52.3282C45.5358 55.0869 45.6464 57.8538 45.6876 60.629C44.5058 61.1851 43.2885 61.6057 42.0352 61.8907C40.3151 59.5948 38.5443 57.337 36.7227 55.1173C34.9076 55.0287 33.0926 55.0287 31.2774 55.1173C29.4369 57.3998 27.5997 59.6798 25.7657 61.9571C24.6027 61.5178 23.4295 61.1194 22.2462 60.7618C22.2787 58.1906 22.3894 55.6229 22.5782 53.0587C23.9118 51.5926 25.1957 50.0873 26.4298 48.5431C31.8795 51.1343 37.2584 50.9793 42.5665 48.0782C48.8429 43.9992 51.5214 38.2218 50.6016 30.7462C49.2294 24.0612 45.3115 19.612 38.8477 17.3986C31.4316 15.5911 25.3001 17.6055 20.4532 23.4415C17.2972 27.9339 16.4117 32.848 17.797 38.1837C18.1072 39.291 18.5277 40.3535 19.0587 41.3712C15.9104 44.1657 12.7228 46.9104 9.49618 49.6056C8.80436 48.7083 8.29525 47.7344 7.96884 46.6837C9.682 44.8939 11.3643 43.0788 13.0157 41.2384C13.3718 40.8825 13.6152 40.462 13.7462 39.9767C13.4783 38.3031 13.1463 36.643 12.7501 34.9962C10.2035 33.59 7.63577 32.2176 5.04696 30.879C5.24437 29.6053 5.44359 28.3214 5.64462 27.0275C8.48087 26.6824 11.3142 26.306 14.1446 25.8986C14.4766 25.7436 14.7201 25.5001 14.8751 25.1681C15.6599 23.8416 16.3903 22.4914 17.0665 21.1173C16.023 18.4324 14.9605 15.7541 13.879 13.0821C14.7679 12.1495 15.7418 11.3083 16.8009 10.5587C19.1692 12.0751 21.5598 13.5581 23.9727 15.0079C24.2826 15.0965 24.5926 15.0965 24.9024 15.0079C26.3191 14.4767 27.7357 13.9454 29.1524 13.4142C29.3119 13.2942 29.4227 13.1394 29.4845 12.9493C30.3359 10.2845 31.1992 7.62825 32.0743 4.98058ZM33.1368 18.6603C39.932 18.6795 44.7797 21.7342 47.6798 27.8243C50.1202 34.9099 48.46 40.82 42.6993 45.5548C38.0076 48.7176 33.0491 49.2045 27.8243 47.0157C28.2006 46.5509 28.577 46.0861 28.9532 45.6212C29.1815 45.348 29.4471 45.1266 29.7501 44.9571C35.7646 46.8182 40.6787 45.2689 44.4923 40.3087C46.4033 37.2538 46.9346 33.9777 46.086 30.4806C45.6727 30.0525 45.2079 29.9861 44.6915 30.2814C42.0795 32.8934 39.4676 35.5053 36.8556 38.1173C36.3608 38.1158 35.8738 38.0274 35.3946 37.8517C34.0308 37.4118 32.6805 36.947 31.3438 36.4571C30.8036 34.7258 30.2503 32.9992 29.6837 31.2775C32.3381 28.5567 35.0165 25.8561 37.7188 23.1759C38.0562 22.5654 37.9455 22.0563 37.3868 21.6486C31.659 20.4741 27.1212 22.2671 23.7735 27.0275C21.791 30.5289 21.459 34.1813 22.7774 37.9845C22.2415 38.5875 21.6661 39.1631 21.0509 39.7111C20.868 39.8759 20.6909 39.8981 20.5196 39.7775C18.1157 33.8706 18.9348 28.4697 22.9766 23.5743C25.7555 20.6687 29.1422 19.0306 33.1368 18.6603ZM33.6681 23.1759C34.0329 23.1343 34.3871 23.1786 34.7306 23.3087C32.386 25.7197 30.0176 28.1103 27.6251 30.4806C27.5365 30.7904 27.5365 31.1004 27.6251 31.4103C28.3072 33.5892 29.0155 35.7586 29.7501 37.9181C29.8607 38.0287 29.9715 38.1395 30.0821 38.2501C32.3657 38.9818 34.6457 39.7122 36.922 40.4415C37.1078 40.345 37.307 40.2786 37.5196 40.2423C39.8438 37.9181 42.1681 35.5939 44.4923 33.2696C44.2784 38.4132 41.733 41.7999 36.8556 43.4298C34.4303 44.0256 32.084 43.8042 29.8165 42.7657C29.4539 42.6691 29.0997 42.6911 28.754 42.8321C23.2006 49.249 17.6224 55.646 12.0196 62.0236C9.45195 63.5206 7.26055 63.1 5.4454 60.7618C4.5767 59.0237 4.66524 57.3415 5.71102 55.715C12.0468 50.1315 18.4217 44.5976 24.836 39.1134C24.9633 38.8877 25.0297 38.6442 25.0352 38.3829C23.1064 33.7966 23.8147 29.6795 27.1602 26.0314C29.0364 24.3956 31.2057 23.4439 33.6681 23.1759ZM9.23055 57.3087C10.3255 57.2726 10.6354 57.7374 10.1602 58.7032C9.63472 59.02 9.21414 58.9094 8.89852 58.3712C8.81718 57.958 8.92786 57.604 9.23055 57.3087Z" fill="white"/>
<path opacity="0.921" fill-rule="evenodd" clip-rule="evenodd" d="M8.83192 55.3163C11.5974 55.1812 12.7263 56.4651 12.2186 59.1678C11.428 60.6807 10.2105 61.1898 8.5663 60.6952C7.05267 59.9031 6.54355 58.6856 7.03895 57.0428C7.36333 56.1647 7.96099 55.5892 8.83192 55.3163ZM9.23036 57.3085C8.92767 57.6037 8.81698 57.9578 8.89833 58.371C9.21394 58.9091 9.63452 59.0198 10.16 58.703C10.6352 57.7372 10.3253 57.2723 9.23036 57.3085Z" fill="white"/>
</svg>
