<svg width="68" height="68" viewBox="0 0 68 68" fill="none" xmlns="http://www.w3.org/2000/svg">
<path opacity="0.95" fill-rule="evenodd" clip-rule="evenodd" d="M13.7461 0.730468C27.2045 0.708334 40.6628 0.730468 54.1211 0.796875C56.6516 1.4679 58.1789 3.08377 58.7031 5.64453C58.7917 12.5065 58.7917 19.3684 58.7031 26.2305C58.1613 28.853 56.5897 30.4689 53.9883 31.0781C40.6185 31.1667 27.2487 31.1667 13.8789 31.0781C11.2776 30.4689 9.70595 28.853 9.16407 26.2305C9.07552 19.3684 9.07552 12.5065 9.16407 5.64453C9.71294 3.0817 11.2403 1.44368 13.7461 0.730468ZM14.543 2.85547C27.4701 2.83333 40.3972 2.85547 53.3242 2.92187C54.9006 3.21429 55.9409 4.12183 56.4453 5.64453C56.5339 12.4622 56.5339 19.28 56.4453 26.0977C55.9833 27.7549 54.8986 28.7068 53.1914 28.9531C40.3528 29.0417 27.5144 29.0417 14.6758 28.9531C12.9686 28.7068 11.884 27.7549 11.4219 26.0977C11.3333 19.28 11.3333 12.4622 11.4219 5.64453C11.9491 4.12021 12.9895 3.19053 14.543 2.85547Z" fill="white"/>
<path opacity="0.926" fill-rule="evenodd" clip-rule="evenodd" d="M41.6367 9.23047C43.3673 9.33268 45.0938 9.48762 46.8164 9.69531C47.7469 9.58322 48.2781 9.98166 48.4102 10.8906C48.2066 12.6826 48.0073 14.4756 47.8125 16.2695C47.7665 16.5814 47.6116 16.8248 47.3477 17C46.9492 17.0886 46.5508 17.0886 46.1523 17C45.9466 16.8388 45.7918 16.6395 45.6875 16.4023C45.7028 15.4252 45.747 14.4513 45.8203 13.4805C43.0166 15.7128 40.2498 17.9928 37.5195 20.3203C37.0943 20.5173 36.6515 20.5616 36.1914 20.4531C33.4676 18.9805 30.7227 17.5416 27.957 16.1367C25.7676 18.171 23.5984 20.2296 21.4492 22.3125C20.443 22.8938 19.779 22.6282 19.457 21.5156C19.4736 21.2995 19.54 21.1003 19.6562 20.918C22.1661 18.4077 24.756 15.995 27.4258 13.6797C27.6472 13.5911 27.8684 13.5911 28.0898 13.6797C30.9703 15.1862 33.8479 16.6471 36.7227 18.0625C39.2903 15.9375 41.8581 13.8125 44.4258 11.6875C43.4459 11.5896 42.472 11.4567 41.5039 11.2891C40.77 10.5396 40.8143 9.8534 41.6367 9.23047Z" fill="white"/>
<path opacity="0.929" fill-rule="evenodd" clip-rule="evenodd" d="M12.0195 38.3165C15.3213 37.9193 17.6899 39.2031 19.1249 42.1681C20.2309 45.9098 19.0577 48.6767 15.6054 50.4688C12.5196 51.4321 9.97404 50.6574 7.9687 48.1446C6.12686 44.6013 6.76879 41.613 9.89448 39.1798C10.591 38.8232 11.2993 38.5354 12.0195 38.3165ZM12.6835 40.4415C15.9084 40.5892 17.4357 42.2715 17.2656 45.4884C16.4897 47.8142 14.8738 48.8545 12.4179 48.6095C10.3876 48.0276 9.28081 46.6773 9.09761 44.5587C9.34249 42.3341 10.5378 40.9616 12.6835 40.4415Z" fill="white"/>
<path opacity="0.93" fill-rule="evenodd" clip-rule="evenodd" d="M32.6055 38.3163C37.1697 38.0059 39.7374 40.1088 40.3086 44.6249C39.788 48.7762 37.4416 50.857 33.2695 50.8671C29.7655 50.2184 27.8619 48.1155 27.5586 44.5585C27.8291 41.3086 29.5113 39.2278 32.6055 38.3163ZM33.4023 40.4413C36.7929 40.6299 38.2759 42.4007 37.8516 45.7538C37.016 47.9096 35.4443 48.8615 33.1367 48.6093C30.545 47.7869 29.5047 46.0382 30.0156 43.3632C30.6117 41.7512 31.7406 40.7773 33.4023 40.4413Z" fill="white"/>
<path opacity="0.929" fill-rule="evenodd" clip-rule="evenodd" d="M53.3243 38.3164C57.215 37.9686 59.7164 39.6509 60.8282 43.3633C61.2103 46.0267 60.347 48.1738 58.2384 49.8047C54.9741 51.6222 52.0744 51.1574 49.5391 48.4102C47.5685 45.1622 47.9447 42.2182 50.668 39.5781C51.4783 38.9736 52.3638 38.553 53.3243 38.3164ZM54.1212 40.4414C56.8456 40.4964 58.3951 41.8688 58.7696 44.5586C58.0966 48.0603 56.0601 49.2778 52.6602 48.211C50.3938 46.6317 49.9289 44.6173 51.2657 42.168C52.0154 41.2299 52.9672 40.6543 54.1212 40.4414Z" fill="white"/>
<path opacity="0.946" fill-rule="evenodd" clip-rule="evenodd" d="M12.4181 52.9258C17.1333 52.8412 20.3872 54.9662 22.1798 59.3008C22.3336 59.8715 22.4664 60.4471 22.5782 61.0273C22.6668 62.8867 22.6668 64.7461 22.5782 66.6055C22.4232 66.7605 22.2684 66.9153 22.1134 67.0703C16.2254 67.1589 10.3373 67.1589 4.44931 67.0703C4.06641 66.8593 3.86719 66.5272 3.85166 66.0742C3.75691 64.3001 3.80117 62.5293 3.98447 60.7617C4.62921 57.4159 6.51072 55.0474 9.629 53.6562C10.5522 53.3177 11.4819 53.0743 12.4181 52.9258ZM12.1524 55.1836C16.4148 54.9987 19.1374 56.9467 20.3204 61.0273C20.4751 62.3511 20.5415 63.6792 20.5196 65.0117C15.6941 65.0117 10.8686 65.0117 6.04306 65.0117C5.46371 61.6307 6.43767 58.8196 8.96494 56.5781C9.96094 55.9243 11.0234 55.4594 12.1524 55.1836Z" fill="white"/>
<path opacity="0.941" fill-rule="evenodd" clip-rule="evenodd" d="M33.0038 52.9258C37.6396 52.7958 40.8935 54.8323 42.7655 59.0351C43.0265 59.8136 43.2035 60.6104 43.2968 61.4258C43.3853 63.1081 43.3853 64.7903 43.2968 66.4727C43.1925 66.7099 43.0376 66.9091 42.8319 67.0703C36.8996 67.1589 30.9674 67.1589 25.035 67.0703C24.9244 66.9597 24.8136 66.8489 24.703 66.7383C24.4867 64.98 24.4424 63.2092 24.5702 61.4258C25.3687 56.5765 28.1799 53.7432 33.0038 52.9258ZM32.871 55.1836C36.9434 54.9712 39.6218 56.7862 40.9061 60.6289C41.0893 62.0825 41.1557 63.5435 41.1054 65.0117C36.3241 65.0117 31.5429 65.0117 26.7616 65.0117C26.7396 63.7714 26.7616 62.5317 26.828 61.293C27.537 57.9499 29.5513 55.9135 32.871 55.1836Z" fill="white"/>
<path opacity="0.943" fill-rule="evenodd" clip-rule="evenodd" d="M53.7227 52.9258C58.3856 52.8336 61.6395 54.9144 63.4844 59.168C63.9172 60.8195 64.1165 62.5018 64.0821 64.2148C64.0599 64.8347 64.0378 65.4544 64.0157 66.0742C63.9754 66.3914 63.8646 66.6792 63.6836 66.9375C57.7182 67.1574 51.7417 67.2017 45.7539 67.0703C45.5989 66.9153 45.4441 66.7605 45.2891 66.6055C45.2005 64.7461 45.2005 62.8867 45.2891 61.0273C46.2679 56.3958 49.0792 53.6952 53.7227 52.9258ZM53.5899 55.1836C57.6861 55.0273 60.3645 56.8867 61.625 60.7617C61.8035 62.1719 61.8699 63.5885 61.8243 65.0117C57.043 65.0117 52.2618 65.0117 47.4805 65.0117C46.867 61.7395 47.7525 58.9726 50.1368 56.7109C51.187 55.9416 52.3381 55.4325 53.5899 55.1836Z" fill="white"/>
</svg>
