<svg width="66" height="66" viewBox="0 0 66 66" fill="none" xmlns="http://www.w3.org/2000/svg">
<path opacity="0.936" fill-rule="evenodd" clip-rule="evenodd" d="M30.873 0.322333C34.5418 0.224797 38.0654 0.890813 41.4434 2.32038C44.5708 4.16619 46.4399 6.89471 47.0508 10.5059C47.2765 12.487 47.0831 14.4206 46.4707 16.3067C48.1534 17.7534 48.5616 19.5151 47.6953 21.5919C47.0818 22.4312 46.5662 23.3335 46.1484 24.2989C45.9336 24.6856 45.6328 24.9864 45.2461 25.2012C43.7646 28.0801 42.0888 30.8302 40.2188 33.4512C40.1328 34.3536 40.1328 35.2559 40.2188 36.1583C40.7489 36.9893 41.329 37.7843 41.959 38.543C42.8184 38.8868 43.6777 39.2305 44.5371 39.5743C48.5779 40.2467 52.2304 41.7935 55.4941 44.2149C57.7077 45.9599 59.1472 48.2158 59.8125 50.9825C60.0887 52.0444 60.3035 53.1186 60.457 54.2051C60.8084 57.6157 61.0878 61.0318 61.2949 64.4532C61.2688 64.7633 61.1398 65.0211 60.9082 65.2266C42.3099 65.4409 23.7044 65.4838 5.0918 65.3555C4.8125 65.2482 4.61914 65.0548 4.51172 64.7755C4.6554 60.4588 5.04212 56.1618 5.67188 51.8848C6.4768 47.4717 8.86157 44.2275 12.8262 42.1524C15.3941 40.8381 18.1011 39.9357 20.9473 39.4454C21.9627 39.136 22.9295 38.7279 23.8477 38.2208C24.3633 37.5333 24.8789 36.8457 25.3945 36.1583C25.4805 35.127 25.4805 34.0958 25.3945 33.0645C24.2344 31.3887 23.0742 29.713 21.9141 28.0372C21.327 27.2068 20.8759 26.3044 20.5605 25.3301C20.2619 25.0961 19.9825 24.8382 19.7227 24.5567C19.3477 23.6771 18.875 22.8606 18.3047 22.1075C17.5373 20.5571 17.5373 19.0103 18.3047 17.4669C18.5648 17.2284 18.8011 16.9706 19.0137 16.6934C17.9516 13.6627 18.0161 10.6549 19.207 7.66999C20.0694 5.91663 21.466 4.86389 23.3965 4.51179C25.2637 2.00961 27.7558 0.613125 30.873 0.322333ZM32.0332 2.51374C34.6901 2.66272 37.2682 3.19982 39.7676 4.12507C43.5387 6.14104 45.279 9.29925 44.9883 13.5997C44.7914 14.6198 44.4907 15.608 44.0859 16.5645C44 16.1778 44 15.7911 44.0859 15.4044C44.9892 13.962 44.624 13.253 42.9902 13.2774C40.8758 14.8095 38.5125 15.4111 35.9004 15.0821C32.5424 14.6076 29.4486 13.4474 26.6191 11.6016C24.4637 11.0244 23.2606 11.8623 23.0098 14.1153C23.2239 14.8095 23.2454 15.497 23.0742 16.1778C22.6376 16.6144 22.2509 17.0011 21.9141 17.338C20.6387 14.8403 20.2949 12.2191 20.8828 9.47468C21.1481 8.3613 21.7711 7.52341 22.752 6.961C23.4524 6.83649 24.14 6.66462 24.8145 6.44538C25.633 4.78933 26.9221 3.67214 28.6816 3.09382C29.7964 2.77355 30.9137 2.58019 32.0332 2.51374ZM25.3301 13.3419C28.0883 15.021 31.0531 16.2027 34.2246 16.8868C36.7739 17.3875 39.266 17.1941 41.7012 16.3067C42.1646 17.7186 42.6158 19.1366 43.0547 20.5606C43.5062 22.9415 43.0766 25.1329 41.7656 27.1348C40.4446 29.0463 39.1555 30.9798 37.8984 32.9356C37.4043 33.5157 36.9101 34.0958 36.416 34.6758C35.9799 34.9429 35.5072 35.0934 34.998 35.127C33.5823 35.0673 32.1643 35.0459 30.7441 35.0626C29.7442 34.88 28.9923 34.3429 28.4883 33.4512C26.7696 30.9591 25.0507 28.4668 23.332 25.9747C23.1351 25.5987 22.9632 25.2119 22.8164 24.8145C22.4052 22.4292 22.7919 20.1949 23.9766 18.1114C24.4183 17.7561 24.762 17.3264 25.0078 16.8223C25.1505 15.6618 25.258 14.5016 25.3301 13.3419ZM45.5684 18.8848C45.8817 19.0275 46.0106 19.2853 45.9551 19.6583C45.9267 20.2377 45.7334 20.7533 45.375 21.2051C45.3842 20.4304 45.4486 19.657 45.5684 18.8848ZM19.916 19.0137C20.146 19.1522 20.2964 19.3669 20.3672 19.6583C20.538 20.1646 20.5809 20.6802 20.4961 21.2051C19.9571 20.5525 19.7638 19.822 19.916 19.0137ZM28.166 36.6739C28.8433 37.0499 29.5738 37.2863 30.3574 37.3829C32.205 37.4689 34.0528 37.4689 35.9004 37.3829C36.3896 37.278 36.8408 37.0846 37.2539 36.8028C37.2754 36.8457 37.2968 36.8888 37.3184 36.9317C36.3985 38.4498 35.2813 39.8034 33.9668 40.9923C33.2619 41.6845 32.5314 41.7275 31.7754 41.1212C30.2565 39.8829 29.0534 38.4005 28.166 36.6739ZM26.4902 38.3497C27.2396 39.3291 27.9915 40.3174 28.7461 41.3145C29.2236 41.8424 29.7607 42.2936 30.3574 42.668C29.3957 43.1922 28.4075 43.6433 27.3926 44.0215C26.8458 42.5194 26.2443 41.037 25.5879 39.5743C25.9056 39.1738 26.2064 38.7655 26.4902 38.3497ZM38.9941 38.3497C39.4395 38.653 39.7833 39.0611 40.0254 39.5743C39.4631 41.021 38.883 42.4605 38.2852 43.8926C38.2128 43.9599 38.1269 44.0029 38.0273 44.0215C37.1142 43.6187 36.2334 43.1675 35.3848 42.668C36.7895 41.3755 37.9927 39.936 38.9941 38.3497ZM23.3965 40.7989C23.6428 40.8084 23.7933 40.9373 23.8477 41.1856C26.3471 47.4307 28.8823 53.6612 31.4531 59.877C31.6354 61.0266 31.6999 62.1868 31.6465 63.3575C30.6544 63.4002 29.6662 63.3571 28.6816 63.2286C26.9263 59.6535 25.1216 56.1086 23.2676 52.5938C23.9023 52.1152 24.5254 51.6211 25.1367 51.1114C25.3279 50.6986 25.3709 50.2689 25.2656 49.8223C25.2012 49.586 25.0507 49.4356 24.8145 49.3712C23.7501 48.9663 22.6759 48.6011 21.5918 48.2755C21.7672 45.9524 21.982 43.6321 22.2363 41.3145C22.6361 41.1396 23.0228 40.9678 23.3965 40.7989ZM41.8301 40.7989C42.4198 40.8899 42.9568 41.1048 43.4414 41.4434C43.5796 43.4639 43.73 45.4833 43.8926 47.502C43.8497 47.7598 43.8066 48.0176 43.7637 48.2755C42.6845 48.6709 41.6102 49.0792 40.541 49.5001C40.1401 49.9563 40.0757 50.4504 40.3477 50.9825C40.9932 51.5209 41.6162 52.0795 42.2168 52.6583C40.4665 56.2018 38.6833 59.7252 36.8672 63.2286C35.9116 63.355 34.9448 63.398 33.9668 63.3575C33.913 62.1438 33.9775 60.9408 34.1602 59.7481C36.7184 53.429 39.275 47.1126 41.8301 40.7989ZM19.916 41.8301C20.0011 42.0189 20.044 42.2337 20.0449 42.4747C19.8514 44.7108 19.701 46.9451 19.5938 49.1778C19.6384 49.4805 19.7888 49.7168 20.0449 49.8868C20.7567 50.0952 21.4442 50.353 22.1074 50.6602C21.7971 50.9548 21.4749 51.234 21.1406 51.4981C20.8828 51.9278 20.8828 52.3575 21.1406 52.7872C22.8809 56.2676 24.6211 59.7481 26.3613 63.2286C19.8307 63.3575 13.2994 63.4004 6.76758 63.3575C6.86993 59.991 7.14922 56.6394 7.60547 53.3028C8.07034 49.5975 9.85354 46.7401 12.9551 44.7305C15.1324 43.3967 17.4527 42.4299 19.916 41.8301ZM45.6973 41.959C49.2794 42.7405 52.4592 44.3088 55.2363 46.6641C57.0014 48.6703 58.0542 51.012 58.3945 53.6895C58.8659 56.8975 59.1882 60.1201 59.3613 63.3575C52.6581 63.379 45.9549 63.3575 39.252 63.293C41.1275 59.7354 42.9538 56.1474 44.7305 52.5294C44.8515 51.659 44.4863 51.0789 43.6348 50.7891C44.2647 50.5072 44.9093 50.2494 45.5684 50.0157C45.8104 49.8168 46.0038 49.5805 46.1484 49.3067C46.0471 46.857 45.8968 44.4078 45.6973 41.959ZM32.6777 43.8926C32.8389 43.9026 32.9462 43.9885 33 44.1505C33.4632 47.1779 33.9143 50.2072 34.3535 53.2383C33.9155 54.5663 33.4214 55.8769 32.8711 57.17C32.2652 55.9578 31.7281 54.7117 31.2598 53.4317C31.7804 50.2602 32.253 47.0805 32.6777 43.8926ZM30.0996 45.1817C30.1837 45.304 30.2267 45.4543 30.2285 45.6329C30.0591 46.9042 29.8658 48.1717 29.6484 49.4356C29.1973 48.3614 28.7461 47.2871 28.2949 46.213C28.8622 45.8007 29.4637 45.4569 30.0996 45.1817ZM35.2559 45.1817C35.9603 45.5125 36.6478 45.8777 37.3184 46.2774C36.8426 47.3174 36.3914 48.3701 35.9648 49.4356C35.6985 48.0227 35.4622 46.6047 35.2559 45.1817Z" fill="white"/>
</svg>
